<svg xmlns="http://www.w3.org/2000/svg" xmlns:xlink="http://www.w3.org/1999/xlink" viewBox="0 0 1100 800"><defs><clipPath id="clip-path"><rect x="104.84" y="190.23" width="112.96" height="12.32" style="fill:none"/></clipPath><clipPath id="clip-path-2"><rect x="147.13" y="126.32" width="15" height="15.3" style="fill:none"/></clipPath><clipPath id="clip-path-3"><rect x="105.46" y="356.43" width="137.06" height="12.17" style="fill:none"/></clipPath><clipPath id="clip-path-4"><rect x="614.44" y="238.51" width="198.19" height="297.62" style="fill:none"/></clipPath><clipPath id="clip-path-5"><rect x="614.44" y="308.24" width="123.31" height="227.89" style="fill:none"/></clipPath><clipPath id="clip-path-6"><rect x="879.53" y="259.98" width="135.85" height="193.78" style="fill:none"/></clipPath><clipPath id="clip-path-7"><rect x="342.74" y="501.21" width="101.64" height="114.96" style="fill:none"/></clipPath><clipPath id="clip-path-8"><rect x="326.88" y="467.05" width="229.82" height="15.21" style="fill:none"/></clipPath><clipPath id="clip-path-9"><rect x="431.37" y="476.75" width="7.83" height="140.92" style="fill:none"/></clipPath></defs><title>people-reading</title><g id="background"><rect width="1100" height="800" style="fill:#fff"/></g><g id="Shadow"><g style="opacity:0.2"><path d="M522,614.12c-28.19.08-56.38.76-84.52,3.89-10.62,1.18-21,3.78-31.64,4.82-21.24,2.09-42.11,6-63.43,7.8-17.16,1.45-34.4,2.3-51.52,4.14a181.41,181.41,0,0,1-49.74-1.52c-11.79-2.11-23.64-3.3-35.23-6.68-13-3.79-27-6.5-40.56-6.4-19.27.13-38,.15-56.47,6.84-6.47,2.35-14.39,6.21-19.31,11.14C78.29,649.43,76.77,677.58,88,689.28c18.92,19.69,59.31,27.42,85.83,27.79,29.06.39,57.29-1.76,86.4-3,27-1.18,54-2.86,81.11-2.8,55.33.12,110.67,0,165.89-3.69,51.89-3.48,103.91-2.28,155.91-2.28,53.33,0,106.29.41,159.24,7.5,23.06,3.09,46.56,4.17,69.75,6.33,20.76,1.94,40.71,0,61.39-1.82a146.59,146.59,0,0,0,50.39-13.51c12.49-6,34.75-24.5,38.58-38.75,10.74-39.93-151.3-39-176.18-38.88-27.83.1-55.88,1-83.69,0-11.7-.44-23.23-2.73-34.64-5.24s-22.83-1.86-34.37-2.91c-48.09-4.37-96.29-3.73-144.53-3.73C553.38,614.21,537.67,614.07,522,614.12Z" style="fill:#d67086"/></g></g><g id="object"><path d="M111.9,324.91c2.35-1.4,6-1.8,8.87-3.35,1.45-.79,1.39-4.12,4.46-2.59,1.13.57,3,2.22,5.22,3.27,3.16,1.54,7.83,1.84,11.84,1.32,15.78-2,31.61-3.78,47.6-4a5.21,5.21,0,0,0,2.62-.46c1.44-.84,1.76-2.39,2.24-3.89A114.53,114.53,0,0,1,202.94,295c3.15-5.75,6.76-11.17,12.18-15s12.28-5.32,18.31-2.79c4.52,1.9,8.09,5.48,8.63,10.41,1.34,12.23-10.5,20.25-17.85,28.09-7,7.42-12.92,13.71-20.12,20.44a8.16,8.16,0,0,1-2.91,2,8.69,8.69,0,0,1-3.73.21c-15.85-1.61-31.27-3.58-47.09-1.72-4.35.51-8.17-.74-12.31.27-2.64.65-4.2,3.07-6.67,4.08a21.28,21.28,0,0,1-8,1.95c-5.85-.12-12-5.59-13.51-11.35-1-3.76.11-5.6,2.05-6.76" style="fill:#efbfa5"/><path d="M224.41,311.38c-8.64-4.18-17.83-7.07-26.19-11.93,3.83-7.31,15.69-37.37,17.58-40.93,7.25-13.58,8.95-19.56,17.88-26.28,19.07-14.35,39.13-2,36.28,20.55-3.09,24.42-18.07,44.3-34,62a2.82,2.82,0,0,1-1.35.82,3.21,3.21,0,0,1-2-.43c-2.68-1.35-5.51-2.5-8.24-3.81" style="fill:#353a85"/><path d="M218.8,650.92c-3.14.11-6.16-.59-9.25-.88-1.59-30.57,1.3-62.62,2.56-93.33L235.67,558A274.33,274.33,0,0,0,224,608.47c-.36,2.72-4.77,42.44-5.21,42.45" style="fill:#efbfa5"/><path d="M208.6,644.11c-1.94-.34-3.08.52-4.37,1.7-.75.68-1.26,1.66-2.17,2.15a7.13,7.13,0,0,1-2.87.69c-5.66.57-18.72.33-11.76,9.81,6.31,8.61,23.09,5.18,32.77,2.84a3.34,3.34,0,0,0,1.78-.74,4.55,4.55,0,0,0,1-1.92c1.11-4,2.62-9.11-2.36-10.81-2.12-.72-4.08.69-6.33-.09-1.84-.64-3.73-3.28-5.67-3.63" style="fill:#292949"/><path d="M194.49,575.15l48.06-.94Q262,481.69,276.76,388.28c.77-4.83,1.51-9.85.12-14.53-2.63-8.86-12.12-13.92-21.21-15.62-14.11-2.64-40,1-47.29,15.72-7.66,15.51-6.37,43.22-8.23,60.36a1043.1,1043.1,0,0,0-5.66,140.94" style="fill:#292949"/><path d="M310.39,650.92c3.14.11,6.16-.59,9.24-.88,1.6-30.57-1.29-62.62-2.55-93.33L293.52,558a274.33,274.33,0,0,1,11.66,50.51c.36,2.72,4.77,42.44,5.21,42.45" style="fill:#efbfa5"/><path d="M320.59,644.11c1.93-.34,3.08.52,4.37,1.7.75.68,1.26,1.66,2.17,2.15a7.13,7.13,0,0,0,2.87.69c5.66.57,18.72.33,11.76,9.81-6.31,8.61-23.09,5.18-32.77,2.84a3.3,3.3,0,0,1-1.78-.74,4.55,4.55,0,0,1-1-1.92c-1.11-4-2.62-9.11,2.36-10.81,2.12-.72,4.08.69,6.33-.09,1.84-.64,3.73-3.28,5.67-3.63" style="fill:#292949"/><path d="M334.69,575.15l-48.05-.94q-19.42-92.52-34.21-185.93c-.77-4.83-1.51-9.85-.12-14.53,2.63-8.86,12.12-13.92,21.21-15.62,14.11-2.64,40.05,1,47.29,15.72,7.66,15.51,6.37,43.22,8.23,60.36a1041.46,1041.46,0,0,1,5.65,140.94" style="fill:#292949"/><path d="M293.62,236.92a114.6,114.6,0,0,1,28.26,44.18c10.26,28.8,10.45,59.55,10.55,89.68l.09,30.08c0,9.87-.84,12-11.56,10.69-19.87-2.41-40.53-6.5-58.53-15.33-8.57-4.2-16.57-9.51-25.56-12.82-13.06-4.81-26.46-2.63-39.39-5.77,5.62-17,9.63-31.41,12.51-48.89,3-18,5.66-37.62,10-55.38,2.61-10.65,7.46-20.61,12.39-30.4,3.32-6.59,6.83-13.33,12.46-18.09,17-14.33,36-.12,48.77,12" style="fill:#353a85"/><path d="M247.29,194.68c2.43,5.3,6.39,9.71,9.62,14.56s4.28,9,5.12,14.46c.6,4,2,7,6.77,7.71,9,1.28,6.41-6.14,8.45-11.53,2.33-6.17,7.3-11,10.77-16.54,10-15.91,7.17-47.34-13.68-54.05-22.81-7.33-34.41,29.3-27,45.39" style="fill:#efbfa5"/><path d="M283.64,179.29c2.59.1,5.44.31,7.36,2s1.71,5.53-.82,5.95c-2.3.37-5.28-2-6.68-.28-.82,1-.1,2.52.52,3.72a21.78,21.78,0,0,1,2,14.8c.95.87,2.42,0,3.25-1a47.62,47.62,0,0,0,9.46-15.52,9.48,9.48,0,0,0,3.47,3.36c-.86-2.14-.31-4.49.22-6.68,1.94-8,3.27-17.47-2.35-24-3-3.51-7.57-5.54-12.17-6.39s-9.28-.64-13.92-.43c-2,.09-4.42.52-4.9,2.35,4.35,1.74,8.85,5.14,11,9.25.66,1.27,3.28,12.82,3.54,12.83" style="fill:#292949"/><path d="M274.46,160l.46.34c2,1.5,3.82,3.33,6.21,4,3.43,1,7.13-.7,10.51.48,3.78,1.3,6.27,5.83,9,8.5a40.1,40.1,0,0,0,16.17,9.46,40.56,40.56,0,0,0,9.48,1.69,16.92,16.92,0,0,0,4.82,0c1.91-.52,1.84-1.38-.19-2-6.37-2-8.36-11-7.88-16.91.38-4.68,2-9.57.21-13.92-1.37-3.31-4.29-5-7.12-6.92-3.12-2.1-6.51-1.53-10.05-2.54-3.7-1.05-6.71-4-10.48-4.7-4-.79-8,1-11.95,1.75a24.72,24.72,0,0,1-10-.12c-2.93-.65-5.8-1.83-8.8-1.81-4.43,0-8.51,2.81-11.09,6.41-3.66,5.09-6,13.8-4.74,20.5-.2-1,3.3-4.8,4-5.62,1.52-1.71,3.36-3.31,5.68-3.59,5.25-.62,11.47,2,15.7,5.06" style="fill:#292949"/><path d="M99.88,366.1s4.9,23.29,1.62,33.84l8.92.06-2.88-37.44Z" style="fill:#babcbe"/><path d="M110,395.93q-3.73.6-7.52.85c-.41,0-.33.7.07.67,2.53-.18,5-.46,7.53-.86.4-.06.32-.72-.08-.66" style="fill:#babcbe"/><path d="M109.59,392.41l-6.71.91c-.41.06-.33.72.07.67l6.72-.92c.4-.05.32-.72-.08-.66" style="fill:#babcbe"/><path d="M109.25,389.37a17,17,0,0,1-6.42.75c-.41,0-.33.67.07.66a30.75,30.75,0,0,0,6.42-.74c.4-.09.32-.76-.07-.67" style="fill:#babcbe"/><path d="M109.41,385.09a50.24,50.24,0,0,1-6.54,1.13c-.41,0-.33.7.07.66a50.07,50.07,0,0,0,6.55-1.12c.39-.1.32-.76-.08-.67" style="fill:#babcbe"/><path d="M108.81,381.3q-3.19.48-6.41.77c-.41,0-.33.7.07.66q3.23-.28,6.42-.77c.4-.06.33-.72-.08-.66" style="fill:#babcbe"/><path d="M108.22,377.52c-2.07.39-4.14.69-6.23.92a.34.34,0,0,0,.07.67q3.14-.35,6.24-.93c.39-.07.32-.74-.08-.66" style="fill:#babcbe"/><path d="M107.89,373.2q-3.31.72-6.68,1.15a.22.22,0,0,0-.16.07.22.22,0,0,0,0,.08c0,.16.08.33.11.49l.11,0q3.36-.43,6.69-1.15c.39-.08.32-.74-.08-.66" style="fill:#babcbe"/><path d="M107.73,368.9l-6.56,1c-.4.06-.32.72.08.66l6.55-.95c.4-.06.33-.72-.07-.66" style="fill:#babcbe"/><path d="M257,435.68,97.75,449a.38.38,0,0,1-.4-.35l-2.26-26.6a.39.39,0,0,1,.34-.41L254.7,408.32a.38.38,0,0,1,.4.35l2.25,26.6a.37.37,0,0,1-.33.41" style="fill:#d67086"/><polygon points="125.81 446.68 109.06 448.08 106.74 420.72 123.48 419.32 125.81 446.68" style="fill:#292949"/><polygon points="133.39 446.04 129.67 446.35 127.35 419 131.07 418.68 133.39 446.04" style="fill:#292949"/><path d="M146.37,431.18a4.76,4.76,0,1,1-5.16-4.45,4.8,4.8,0,0,1,5.16,4.45" style="fill:#292949"/><path d="M256,408.51,96.77,421.86a.36.36,0,0,1-.4-.34l-1.81-21.31a.37.37,0,0,1,.34-.41l159.26-13.35a.38.38,0,0,1,.4.35l1.81,21.31a.36.36,0,0,1-.34.4" style="fill:#5d66d3"/><polygon points="115.4 404.38 116.22 413.94 120.89 409.26 115.4 404.38" style="fill:#eed5d5"/><polygon points="121.89 404.76 122.54 412.48 126.31 408.7 121.89 404.76" style="fill:#eed5d5"/><polygon points="105.76 421.11 105.04 421.17 103.17 399.11 103.89 399.05 105.76 421.11" style="fill:#eed5d5"/><polygon points="109.17 420.82 108.44 420.88 106.57 398.82 107.29 398.76 109.17 420.82" style="fill:#eed5d5"/><path d="M136.64,153.54l-11.34,4.19.15-2.72a80.3,80.3,0,0,0-3.35-26l.47-.5,10.4-9Z" style="fill:#eed5d5"/><polygon points="201.46 149.14 135.66 152.05 125.02 157.62 196.27 154.63 201.46 149.14" style="fill:#9eb79c"/><path d="M124.83,156.89a27.16,27.16,0,0,0,5.54-2.79l5.08-2.82c.27-.15.48.74.21.89l-5.49,3.05a25.31,25.31,0,0,1-5.24,2.6c-.29.07-.38-.86-.1-.93" style="fill:#b0c0ba"/><path d="M133,120.79A65.86,65.86,0,0,0,122,130c-.37.37-.84-.83-.47-1.21a66.06,66.06,0,0,1,11.18-9.3c.4-.26.71,1.1.31,1.35" style="fill:#b0c0ba"/><path d="M198.72,117l-66.29,2.57,1,7.3c.83,5.9,1.43,11.83,1.79,17.73l.41,7.45,65.8-2.91,0-.44a116.72,116.72,0,0,0-2.76-31.7" style="fill:#8cabef"/><path d="M142.45,119.93c-.19-.93-1.64-.76-1.44.17a110.76,110.76,0,0,1,2.13,29.68c-.06.95,1.38,1.18,1.44.22a112,112,0,0,0-2.13-30.07" style="fill:#5d66d3"/><path d="M190.82,118.41c-.2-.93-1.64-.75-1.44.18a110.74,110.74,0,0,1,2.39,29.66c-.05.95,1.39,1.17,1.44.21a112.36,112.36,0,0,0-2.39-30.05" style="fill:#5d66d3"/><path d="M105,197.27l-25.44,6.49.54-3.68c1.63-11.09-.79-24.3-5.49-34.76l1.08-.7,23.71-12.85Z" style="fill:#efbfa5"/><polygon points="248.97 186.6 102.97 195.34 78.97 203.62 237.08 194.38 248.97 186.6" style="fill:#292949"/><path d="M78.61,202.65c4.28-.83,8.38-2.67,12.47-4.15l11.49-4.18c.6-.22,1,1,.39,1.18L90.56,200c-3.88,1.41-7.75,3.1-11.81,3.89-.64.12-.77-1.12-.14-1.25" style="fill:#353a85"/><path d="M99.36,153.44a168.51,168.51,0,0,0-25.12,13.14c-.84.53-1.8-1.06-.95-1.59a172,172,0,0,1,25.47-13.35c.9-.38,1.5,1.42.6,1.8" style="fill:#353a85"/><path d="M245.3,143.5,98.22,151.83l1.74,9.76a182,182,0,0,1,2.65,23.75l.36,10,146-8.74.08-.59A95.15,95.15,0,0,0,245.3,143.5Z" style="fill:#3b3387"/><path d="M243,387.15l-134.78,11.3-2.74-32.37,134.77-11.29.17.43A56,56,0,0,1,243,387.15" style="fill:#dddae8"/><rect x="120.59" y="364.08" width="18.9" height="32.48" transform="matrix(1, -0.08, 0.08, 1, -31.31, 12.19)" style="fill:#353a85"/><path d="M103,331.79l-25.32-1.58L78.87,333c3.45,8.35,3.45,18.86.84,27.48l1.13.4,24.62,6.91Z" style="fill:#efbfa5"/><polygon points="249.07 320 101.4 333.58 77.16 330.4 235.4 315.41 249.07 320" style="fill:#292949"/><path d="M77,331.2c4.19.07,8.39.94,12.52,1.54l11.67,1.69c.62.08.8-.89.18-1l-12.6-1.82a94.82,94.82,0,0,0-11.85-1.42c-.63,0-.54,1,.08,1" style="fill:#353a85"/><path d="M105.11,366.5a193.62,193.62,0,0,1-26-6.94c-.88-.31-1.51,1-.62,1.33A197.21,197.21,0,0,0,104.85,368a.74.74,0,0,0,.26-1.46" style="fill:#353a85"/><path d="M252.08,355.49,104.31,367.88v-7.74a117.53,117.53,0,0,0-1.53-18.73l-1.37-7.83L249.07,320l.19.48a61.48,61.48,0,0,1,2.82,35" style="fill:#474ebb"/><path d="M234.6,318.94l-140,11.74a.38.38,0,0,1-.4-.34l-2.78-32.79a.37.37,0,0,1,.33-.41l140.05-11.73a.37.37,0,0,1,.4.34l2.78,32.79a.36.36,0,0,1-.34.4" style="fill:#8cabef"/><path d="M249.1,260,76,274.53a.36.36,0,0,1-.4-.34l-2-23.73a.39.39,0,0,1,.34-.41L247,235.54a.36.36,0,0,1,.4.34l2,23.74a.37.37,0,0,1-.34.4" style="fill:#5d66d3"/><path d="M219.28,238.32l-110.36,9.25-4.11-48.36L215.17,190l.63,2.66a146.58,146.58,0,0,1,3.65,43Z" style="fill:#d67086"/><polygon points="143.02 244.39 121.12 246.23 117.07 198.5 138.97 196.67 143.02 244.39" style="fill:#eed5d5"/><rect x="123.77" y="197.51" width="12.34" height="47.89" transform="translate(-18.05 11.63) rotate(-4.79)" style="fill:#d67086"/><g style="opacity:0.13000499999999998"><g style="clip-path:url(#clip-path)"><polygon points="104.84 199.48 215.2 190.23 217.79 202.55 105.06 202.1 104.84 199.48" style="fill:#000100"/></g></g><g style="opacity:0.639999"><g style="clip-path:url(#clip-path-2)"><path d="M162.1,133.35a7.5,7.5,0,1,1-8.12-7,7.57,7.57,0,0,1,8.12,7" style="fill:#5d66d3"/></g></g><path d="M91.89,260.61a25.21,25.21,0,0,0-5.55-4.43c-.81-.48-1.43.87-.62,1.34a24.12,24.12,0,0,1,4.75,3.73,44.21,44.21,0,0,1-4.15,5c-.65.68.47,1.64,1.12,1A44.85,44.85,0,0,0,92,261.66a.77.77,0,0,0-.09-1.05" style="fill:#dddae8"/><path d="M100.29,259.6c-1.11-1.45-3.06-2.61-4.47-3.76a.74.74,0,0,0-.94,1.13,37.71,37.71,0,0,1,3.93,3.13,20.79,20.79,0,0,1-1.91,2c-.71.79-1.43,1.58-2.14,2.38s.48,1.66,1.11,1l2.57-2.86a9.7,9.7,0,0,0,1.92-2.28.75.75,0,0,0-.07-.74" style="fill:#dddae8"/><path d="M104.34,253.52a.74.74,0,0,0-.94,1.13c.44.37,1.34,1.69.37,2s-.39,1.65.51,1.4a2,2,0,0,0,1.35-2.07,3.48,3.48,0,0,0-1.29-2.42" style="fill:#dddae8"/><path d="M112.73,256.6a.73.73,0,0,0-.82-.23,2.86,2.86,0,0,0-3.11,4.73,2.75,2.75,0,0,0,3.84-.11,3.29,3.29,0,0,0,.09-4.39m-1,3.28a1.32,1.32,0,0,1-1.94.09,1.4,1.4,0,0,1,1.62-2.24.74.74,0,0,0,.41,0,1.74,1.74,0,0,1-.09,2.1" style="fill:#dddae8"/><rect x="212.9" y="286.91" width="1.68" height="33.79" transform="translate(-24.67 18.95) rotate(-4.8)" style="fill:#dddae8"/><rect x="219.66" y="286.34" width="1.68" height="33.79" transform="translate(-24.62 19.53) rotate(-4.8)" style="fill:#dddae8"/><g style="opacity:0.110001"><g style="clip-path:url(#clip-path-3)"><path d="M105.46,367.78l135.4-11.35s1.16,3.23,1.66,5.41L105.68,368.6Z" style="fill:#000100"/></g></g><path d="M242.17,284.83,69,299.34a.38.38,0,0,1-.4-.35l-2-23.73a.37.37,0,0,1,.33-.41L240.1,260.34a.38.38,0,0,1,.4.35l2,23.73a.37.37,0,0,1-.34.41" style="fill:#292949"/><rect x="87.71" y="280.31" width="2.63" height="10.05" transform="translate(-23.48 8.42) rotate(-4.78)" style="fill:#dddae8"/><rect x="95.93" y="279.62" width="2.63" height="10.05" transform="translate(-23.39 9.1) rotate(-4.78)" style="fill:#dddae8"/><path d="M249.72,259.52,76.1,274.31a.81.81,0,0,1-.87-.92L249.08,257.2Z" style="fill:#eed5d5"/><path d="M249,258.52,75.38,273.31a.81.81,0,0,1-.87-.92L248.36,256.2Z" style="fill:#dddae8"/><path d="M97.26,203.78S105,234,100,247.2l9,.37-4.08-48.09Z" style="fill:#babcbe"/><path d="M230.27,360.77a3.13,3.13,0,0,1,.39-.85c1.68-2.28,3.92-2.47,6.16-4.21,1-.77.71-4,3.2-3.14.92.32,3.06,1.43,5,2.13,2.84,1,7.06.59,10.35-.36a97.23,97.23,0,0,0,13.22-4.66c4.34-2,8.57-4.24,12.71-6.63,3.44-2,8.9-4.3,11.51-7.34,4.4-5.15-.7-17.69-1.28-24.12-.6-6.7,0-26.43,9-27,14.81-.91,15,13.16,15.7,24.5a143.42,143.42,0,0,1-.25,21.34c-.89,9.89-7.29,15.55-15.76,20.23-9,5-18.16,9.83-28,12.78-4.8,1.43-9.52,1.86-14.41,2.65s-4.22,2.89-8.27,4.66c-2.27,1-4.39,2.42-6.81,3-4.33,1-7.8-2-11.09-4.34a4.64,4.64,0,0,1-1.8-1.8c-.7-1.37-.43-2.83-.21-4.28a12.91,12.91,0,0,1,.62-2.54" style="fill:#efbfa5"/><path d="M316,312.93l-25.13,4.87c.54-.11-9.69-37.56-10.22-39.81-2-8.58-4.07-17.5-2.33-26.15,3.71-18.47,12.62-23,23.84-3.61,10.59,18.32,27.19,40.26,23.9,61.11a2,2,0,0,1-2.13,2.05Z" style="fill:#353a85"/><path d="M524.21,249.77A110.67,110.67,0,0,0,564,264.47q3.76-17.28,8-34.46c1.21-4.94,2.48-10,4.89-14.47,1.29-2.4,6.12-6.76,4.62-9.87-2.63-5.45-14.09.58-17.36,2.39a98.76,98.76,0,0,0-23,18.32c-1.62,1.7-18.4,22.49-16.91,23.39" style="fill:#8cabef"/><path d="M641.4,520.87l.77,47.16c-.31,13.09.86,26.13,1.66,39.17.74,12.11-1.7,24.6,4,35.83,1.81,3.52,5.64,6,8.56,1.9,2.25-3.13,1.21-8.55,1.77-12.19,4.17-27.34,11.94-54,15.82-81.39,4.06-28.69-7-27.93-32.62-30.48" style="fill:#efbfa5"/><polygon points="644.08 634.96 641.04 642.83 655.96 655.96 669.63 656.53 674.05 649.32 655.67 633.33 644.08 634.96" style="fill:#292949"/><path d="M608,521.33l-8.6,46.38c-3,20.74-9.76,40.95-12.74,61.69-.69,4.77-.34,10-2.33,14.49s-5.77,4.58-9.14,1.59c-4.52-4-2.43-11.15-2.35-16.62.55-36.4-2.31-72.29-3-108.76a1.61,1.61,0,0,1,.38-1.33,1.59,1.59,0,0,1,1.12-.22c3.54.24,36.47,3.79,36.66,2.78" style="fill:#efbfa5"/><polygon points="572.72 636.9 567.99 643.88 579.57 660.04 592.75 663.67 598.68 657.65 584.39 637.93 572.72 636.9" style="fill:#292949"/><polygon points="690 550.88 683.57 483.46 680.46 439.65 670.03 403.88 613.7 395.13 544.06 407.07 540.71 420.6 554.12 545.85 621.29 550.88 620.38 472.93 630.74 521.25 630.3 550.88 690 550.88" style="fill:#292949"/><path d="M558.85,272.15c-.1,2.28-.16,4.55-.2,6.82-.82,46.25,1.73,93.08,2,139.71a516.7,516.7,0,0,1,72.2-6.16c5.59-.09,31,3.84,34.57.5,4.8-4.53-.48-3.68-.13-9.58.46-7.64-3.21-13.9-1.83-23,1.63-10.64,4.87-21.16,6.74-31.8A463.47,463.47,0,0,0,679,284.1c.65-19.2-.05-39.11-8.3-56.46-20.36-42.77-86-42-104,2.66-5.34,13.23-7.19,27.55-7.78,41.85" style="fill:#fff"/><path d="M632.92,212.14l-17.83,32.5q1.39,49.23,2.8,98.47.65,22.68,1.28,45.38c.15,5.25.28,10.5.45,15.75.08,2.36-.57,6.33.77,8.25,2.92,4.18,13.59,2.88,18.24,3.24,7.26.58,14.63,1.17,21.46,3.67,4.56,1.67,8.87,4.19,13.67,4.86a4.07,4.07,0,0,0,3.13-.51c1-.77,1.11-2.13,1.2-3.34,1.67-22.53,1.71-45.76,3-68.54,1-17.91,3.4-36,2.55-53.9-.88-18.46-3.77-36.81-7.3-54.92-2.08-10.72-4.54-21.65-10.44-30.85-6.69-10.42-16.16-14.59-27.83-16.94-4.12-.83-19.46-6.63-16.9,2.74,1.27,4.63,8.66,10.42,11.79,14.14" style="fill:#8cabef"/><path d="M594.13,215.2,612,247.69c-.37,0-2.26,79.65-2.41,85l-1.74,61.33c-.17,5.68.6,12.34-.51,17.93-1.56,7.79-9.76,6.26-16.76,6.89-15.3,1.38-31.41,4-46.76,3.22-4.43-.23,1.4-92.6,1.39-101.22,0-31-6.42-65.4,9.32-93.51,4.59-8.18,12.66-21.3,21.58-25.34,8.31-3.76,20.21-4.4,29.23-6.51l.46,5.85Z" style="fill:#8cabef"/><path d="M632.83,136.5a35.89,35.89,0,0,1,4.41,16.24c.06,1.5.17,3.24,1.38,4.13s.16,3,1.15,1.76,4.36-5.69,4.51-7.29a59.35,59.35,0,0,0,0-11.31c-.32-3.27-1-6.69-3.13-9.18a18.4,18.4,0,0,0-4.62-3.53,23.75,23.75,0,0,0-7.69-3.45c-4.79-.89-7.72.83-3.5,4.16a29.25,29.25,0,0,1,7.51,8.47" style="fill:#292949"/><path d="M602.92,200.68c0,2.31-.44,4.72,1.61,6.51a7,7,0,0,0,3.6,1.42,22.23,22.23,0,0,0,10-.72,8.89,8.89,0,0,0,3.66-1.92c1.19-1.14,1.25-2.22,1.3-3.71.07-1.74.42-3.52.65-5.29.5-3.87.72-7.77.84-11.67,5.73-1,12.48-2.84,14.44-8.85a19.77,19.77,0,0,0,.65-6l.18-25c0-2.88,0-5.84-1-8.52-1.72-4.68-6.12-7.48-10.43-9.23-11-4.49-23.82-4.31-34,2.07a18.47,18.47,0,0,0-6.8,6.85c-2.4,4.57-2.1,10.21-1.73,15.49q.53,7.31,1,14.61c.4,5.6,1.24,12,5.59,15,2.31,1.57,5.29,1.86,7.28,3.89,3.48,3.55,1.82,8.85,2.85,13.15a8.13,8.13,0,0,1,.19,1.85" style="fill:#efbfa5"/><path d="M641.71,167.17c-.09-1.54-.77-6.07-3.09-3.22a4.56,4.56,0,0,0-.79,2.78,10.65,10.65,0,0,1-.31,2.94c-.71,2.14-3.08,3.11-5.19,3.07a5,5,0,0,1-2.43-.57,7.63,7.63,0,0,1-1.85-1.7c-1.36-1.55-2.71-3.11-4.06-4.66-2.33-2.67-6.94-1.51-10.07-1.11a20.19,20.19,0,0,0-10.18,3.94c-.3.24-.59.49-.88.75A10.76,10.76,0,0,1,600.6,171c-2.79,1.36-6.24-.06-8.19-2.6-.9-1.16-1.74-2.66-3.13-2.86a2.87,2.87,0,0,0-2.71,1.65,8.35,8.35,0,0,0-.78,3.41A25.08,25.08,0,0,0,588,183.16c4,8.27,11.85,9.28,19.7,9.1L617,192c5.68-.14,11.67-.37,16.45-3.67,4.22-2.91,6.73-7.86,7.75-13a32.32,32.32,0,0,0,.53-8.16M621,178.89a10.83,10.83,0,0,1-9.61,1.11c-1.42-.42-.82-2.8.6-2.37,2.76.83,5.37.81,7.85-.86,1.26-.85,2.41,1.28,1.16,2.12" style="fill:#292949"/><path d="M642.89,122.07a42.73,42.73,0,0,0,1.21-6.14,12.16,12.16,0,0,1-6,.51c0-1.19,0-2.39,0-3.59,0-1-13.47-1.69-14.57-1.78-10.24-.84-19.61-1.64-28.87,3.86-7.91,4.69-13,11.71-14.2,20.83-1.15,8.72,1.7,20.11,6.74,27.35,0-2.32-1.36-7.8-.82-10a19.68,19.68,0,0,1,2.16-6.31,25.93,25.93,0,0,1,9.13-9.59c6-3.77,13-5.75,20-6.73,6.39-.89,14.17-1.71,20.48,0,3,.81,3.54,1.57,5.38-1.49.32-.54,2.89-6.84,2.64-6.85l-3.2-.05" style="fill:#292949"/><path d="M842.5,276.6,613.75,299.34,385,276.6a10.54,10.54,0,0,0-11.51,11.19L383,514.12a10.53,10.53,0,0,0,9.4,9.87c37.64,3.87,184.52,18.54,201,20.41a2.47,2.47,0,0,1,1.94,1.34c1.11,2.15,5.07,6.56,18.39,6.56s17.28-4.41,18.39-6.56a2.47,2.47,0,0,1,1.94-1.34c16.47-1.87,163.35-16.54,201-20.41a10.53,10.53,0,0,0,9.4-9.87L854,287.79A10.54,10.54,0,0,0,842.5,276.6" style="fill:#353a85"/><path d="M842.5,272.85,613.75,295.6,385,272.85A10.55,10.55,0,0,0,373.48,284L383,510.37a10.55,10.55,0,0,0,9.4,9.88c37.64,3.87,184.52,18.53,201,20.4a2.49,2.49,0,0,1,1.94,1.34c1.11,2.15,5.07,6.56,18.39,6.56S631,544.14,632.14,542a2.49,2.49,0,0,1,1.94-1.34c16.47-1.87,163.35-16.53,201-20.4a10.55,10.55,0,0,0,9.4-9.88L854,284a10.54,10.54,0,0,0-11.51-11.19" style="fill:#5d66d3"/><path d="M614.61,294C509.22,223.47,403,255.37,403,255.37V500.16c146.89-29.8,210.78,31.93,210.78,31.93s63.89-61.73,210.77-31.93V255.37S720,223.47,614.61,294" style="fill:#dfd8c7"/><path d="M403,255.37s-4.71,18.63-21.09,29.81l10.55,233.88S403,510.81,403,500.16Z" style="fill:#c1bbac"/><path d="M824.52,255.37s4.72,18.63,21.09,29.81L835.07,519.06s-10.55-8.25-10.55-18.9Z" style="fill:#c1bbac"/><path d="M392.43,519.06s146.51-33.53,212,25.54h9.31V532.09S547.63,469.3,403,500.16Z" style="fill:#cbc4b5"/><path d="M835.07,519.06s-146.52-33.53-212,25.54h-9.3V532.09s66.12-62.79,210.77-31.93Z" style="fill:#cbc4b5"/><path d="M504.57,240.4c-12.7-1.26-25.3-1.77-37.3-1.89-5.53,0-51,1.68-51,3.23V488.06c0-1.56,45.6-3.29,51.14-3.23,39.17.41,83.17,7.58,117.8,26.7,5.78,3.2,29.25,15.76,29.25,24.6V296.39a19.27,19.27,0,0,0-5.17-13.19c-26.29-28.14-65.95-39-104.7-42.8" style="fill:#f4f4f4"/><path d="M724.31,240.4c12.69-1.26,25.29-1.77,37.29-1.89,5.53,0,51,1.68,51,3.23V488.06c0-1.56-45.59-3.29-51.14-3.23-39.16.41-83.16,7.58-117.79,26.7-5.79,3.2-29.25,15.76-29.25,24.6V296.39a19.27,19.27,0,0,1,5.17-13.19c26.29-28.14,65.95-39,104.7-42.8" style="fill:#fff"/><g style="opacity:0.050003"><g style="clip-path:url(#clip-path-4)"><path d="M724.31,240.4c12.69-1.26,25.29-1.77,37.29-1.89,5.53,0,51,1.68,51,3.23V488.06c0-1.56-45.59-3.29-51.14-3.23-39.16.41-83.16,7.58-117.79,26.7-5.79,3.2-29.25,15.76-29.25,24.6V296.39a19.27,19.27,0,0,1,5.17-13.19c26.29-28.14,65.95-39,104.7-42.8" style="fill:#272525"/></g></g><g style="opacity:0.050003"><g style="clip-path:url(#clip-path-5)"><path d="M614.44,308.24V536.13c0-8.84,23.46-21.4,29.25-24.6,27.77-15.33,61.56-23,94-25.6h0c-100.16-43.5-119.84-150-123.31-177.68" style="fill:#272525"/></g></g><path d="M1019,298.71a3.56,3.56,0,0,0-1-.34c-3.27-.41-5.22,1.33-8.46,1.83-1.45.22-4-2.59-5.2.19-.46,1-1.24,3.72-2.21,5.92-1.4,3.21-5.13,6.44-8.56,8.45-13.48,7.9-28.74,11.92-44,15.43a5.6,5.6,0,0,1-2.63.17c-1.55-.4-2.44-2-3.19-3.37a119.34,119.34,0,0,0-12.19-18.49c-4.12-5.15-8.82-10.06-14.76-12.92s-13.36-3.37-19,.11A15.7,15.7,0,0,0,890.56,308c-.63,12.23,15.48,20,23.91,26.27a212.92,212.92,0,0,0,25.08,16.05,9.26,9.26,0,0,0,3.41,1.29,9.44,9.44,0,0,0,3.83-.72c15.92-5.44,31.28-12.26,46.58-19.42,4.2-2,6.84-5.9,10.74-7.68,2.49-1.14,5.26-.24,7.85-.8a25.58,25.58,0,0,0,8-3.37c4.29-2.87,4.53-8.19,5.2-12.83a5.58,5.58,0,0,0-.09-3c-.6-1.67-2-2.6-3.44-3.59a15,15,0,0,0-2.64-1.5" style="fill:#efbfa5"/><path d="M913.19,329.67l24.15-17.3c-.51.37-23.93-38.14-25.4-40.38-5.62-8.57-11.51-17.4-20.2-22.84-18.54-11.61-42,5.15-34.84,26.63,7.74,23.32,25,45.65,45.24,59.51a2.33,2.33,0,0,0,3.42-.16l7.63-5.46" style="fill:#dddae8"/><polygon points="894.7 629.14 894.35 654 909.08 654.2 909.47 626.64 894.7 629.14" style="fill:#efbfa5"/><path d="M907.77,650.31,895,654.54l-3.82,4.11.65,9.75,34.63,2.69a7.71,7.71,0,0,0-3.86-11.72l-1.61-.55Z" style="fill:#292949"/><polygon points="788.54 605.31 778.78 628.18 792.33 633.95 803.15 608.6 788.54 605.31" style="fill:#efbfa5"/><path d="M792.08,634.38a11.12,11.12,0,0,0-1.71-1.53c-1.63-1.19-14.76-8.15-15.89-5a3.64,3.64,0,0,0-.06,1.61,119.38,119.38,0,0,0,6.3,26.47c1.33,3.66,3.34,7.7,7.12,8.61a11.15,11.15,0,0,0,5.06-.27,50.74,50.74,0,0,0,7.21-2.19,4,4,0,0,0,2.22-1.53c.89-1.61-.67-3.52-2.29-4.39s-3.61-1.49-4.4-3.15a6.2,6.2,0,0,1-.45-2.42c-.33-6.11.71-12-3.11-16.2" style="fill:#292949"/><path d="M881.09,513.93c-4.83,22.11-18.65,38-33.41,54.24a699.34,699.34,0,0,0-47.57,58.41l-19.18-8c5.35-31.06,20.08-59.56,31.49-88.93,7.94-20.41,14.36-42,14.71-64.06.18-11-2.48-21-3.9-31.67-1.77-13.22-1.87-26.76-3.46-40-.54-4.45-.84-9.72,2.58-12.62a12,12,0,0,1,5.5-2.21c72.71-14.08,62.43,92.86,53.24,134.88" style="fill:#babcbe"/><path d="M821.86,398A150.52,150.52,0,0,1,826,361.85c20.68-1.11,44,1.18,64.51,5.33,20,4.06,32.46,8.41,32.6,30.09.27,39.89,15.86,73.87,22.59,112.21,3.92,22.29-2.84,42.22-10.33,62.86a699.09,699.09,0,0,0-21.86,72.09l-20.78-.13c-6.84-30.76-4-62.72-4.6-94.22-.4-21.9-2.64-44.31-10.69-64.85-8.85-22.58-21.58-13.6-36.2-26.69C827,445.81,821.93,421.2,821.86,398" style="fill:#babcbe"/><path d="M845.35,244.52a54.89,54.89,0,0,0-6.28,6l-5.33,5.68c-6.15,6.57-9.19,16.28-11.83,24.67C808,325,803,385.58,812,431.69c34.2,3,73.78-5.66,107.9-10.32,3.32-.46,7.08-1.2,8.8-4.07,1-1.74,1.07-3.89,1.07-5.92,0-29.27-6.19-60.74-12-89.6a315.47,315.47,0,0,0-9.34-36.06c-4.09-12.5-8.71-26-18.29-35.46-10.26-10.11-29.89-15.11-42.73-7.21a22.08,22.08,0,0,0-2.11,1.47" style="fill:#d67086"/><path d="M849.08,250.67l-1.86-11.95a20.32,20.32,0,0,1-2.35-1.3c-14.26-9.11-38.18-58-.17-68.94,34.52-9.94,32.73,37.54,26,57.34a29.27,29.27,0,0,1-5,9.37c-1.56,1.9-1.91,1.54-1.68,3.74s2.34,4.54,2.82,6.78a9.17,9.17,0,0,1-1.07,7.07,9.42,9.42,0,0,1-3.43,2.86,10.7,10.7,0,0,1-6.9,1.29c-2.79-.53-5.93-3.41-6.37-6.26" style="fill:#efbfa5"/><path d="M878.8,207.89c-2.89,9.74-5.33,13.5-8.78,17.88-7.21,9.2-1.21-23.4-4.19-34.7a3.34,3.34,0,0,1,0-2.6,3.14,3.14,0,0,1,2.14-1.15c14.53-3.14,14.49,9.56,10.81,20.57" style="fill:#292949"/><path d="M840.61,225.5c-2.34,3.28-7.45,2.39-11,.59-14.78-7.43-23.48-25.31-20.2-41.52,2.75-13.56,19.84-23.73,23.3-6.93,1.22,6-2.4,14.21-1.57,20.82,1.18,9.45,5.59,18.48,9.51,27" style="fill:#292949"/><path d="M878.64,156c1.66.65,3.34,1.34,5.12,2,3.67,1.43,6.33,1.92,10.12-.23,1.09-.62,8.34-7.48,6.6-8.91,11.58,9.45,2,23.24-2.29,33-2.93,6.58-3.53,15.87-10.11,20.17-7.23,4.72-12.2-1.26-18.77-3.93-5.79-2.37-12.06-3.65-18-5.75-9.78-3.49-24.34-9.63-21.1-22.63,3.78-15.18,19.17-19,33-17.8a51.34,51.34,0,0,1,15.4,4" style="fill:#292949"/><path d="M1033.35,448.06l-35.8-53.87v-183a3.24,3.24,0,0,1,5.94-1.8l29.86,44.93Z" style="fill:#353a85"/><polygon points="1031.75 256.08 1001.02 210.47 988.33 213.1 1025.16 259.22 1025.16 449.69 1031.75 448.06 1031.75 256.08" style="fill:#fff"/><polygon points="886.73 242.33 908.65 234.36 1025.16 259.22 1025.16 443.55 886.73 418.62 886.73 242.33" style="fill:#fff"/><path d="M1015.39,453.76,879.53,435a6.47,6.47,0,0,1-5.21-6.35V248a6.47,6.47,0,0,1,7.73-6.35L1015.39,260Z" style="fill:#353a85"/><path d="M1033.35,254.29c-.34,1.36-3.75,3.45-8.19,4.93-4.81,1.61-9.06,1.92-9.72.75h-.05V453.26a.71.71,0,0,0,0,.41v.09h0c.54,1.25,4.85.95,9.74-.68s8.58-4,8.19-5.35Z" style="fill:#5d66d3"/><polygon points="988.33 213.1 988.33 251.36 1025.16 259.22 988.33 213.1" style="fill:#dfd8c7"/><polygon points="1025.16 259.22 919.12 231.64 919.12 236.6 1025.16 259.22" style="fill:#cbc4b5"/><polygon points="890.39 398.22 1002.33 413.71 1002.33 438.77 890.39 423.29 890.39 398.22" style="fill:#8cabef"/><g style="opacity:0.08000199999999999"><g style="clip-path:url(#clip-path-6)"><path d="M879.53,435l135.86,18.79V260S997.55,407.07,879.53,435" style="fill:#272525"/></g></g><path d="M959.29,379.05a4.23,4.23,0,0,0-.81-.72c-2.83-1.68-5.31-.86-8.49-1.7-1.41-.37-2.58-3.95-4.84-1.89-.84.76-2.62,2.91-4.39,4.54-2.57,2.39-7.27,3.86-11.22,4.33-15.52,1.87-31.11-.53-46.46-3.39a5.53,5.53,0,0,1-2.49-.89c-1.25-1-1.45-2.77-1.58-4.36a118.81,118.81,0,0,0-3.8-21.82c-1.73-6.36-4.07-12.74-8.38-17.74S855.93,327,849.4,328a15.63,15.63,0,0,0-11.53,8.36c-5.46,11,6.21,24.53,11.43,33.63a213.81,213.81,0,0,0,16.6,24.72,9.22,9.22,0,0,0,2.62,2.55,9.38,9.38,0,0,0,3.79.86c16.78,1.36,33.58,1.24,50.46.78,4.64-.13,8.62-2.68,12.92-2.76,2.74-.05,4.92,1.88,7.51,2.4a25.64,25.64,0,0,0,8.65.09c5.08-.92,7.42-5.71,9.88-9.69a5.53,5.53,0,0,0,1.1-2.75c.12-1.77-.83-3.21-1.73-4.66a14.83,14.83,0,0,0-1.81-2.44" style="fill:#efbfa5"/><path d="M850,365.25,879,359c-.62.13-6.73-44.52-7.19-47.16-1.73-10.1-3.61-20.55-9.4-29-12.38-18-40.54-12-42.58,10.52-2.21,24.47,4.74,51.84,17.74,72.62a3.07,3.07,0,0,0,1.06,1.17,3.2,3.2,0,0,0,2.14.05l9.17-2" style="fill:#d67086"/><path d="M503.32,622.6c-1.21-10.45-6.45-18.75-16.14-23.3-7.85-3.69-16.68-4.55-25.28-5.66-19.17-2.46-37.46-4.92-56.82-4.16-15.47.61-25,13.82-32.25,26.84-4.57,8.2-3.3,12,2.45,18.93a69.65,69.65,0,0,0,18.91,15.81c14.22,8.08,36.07,6.08,51.73,4.33a120.8,120.8,0,0,0,42.44-12.94c8.49-4.44,16.14-9.66,15-19.85" style="fill:#292949"/><path d="M406.5,651a182.44,182.44,0,0,0-6.72,18.41A31.18,31.18,0,0,0,398,679.61c.3,8.09,9.31,13.95,15.19,6.47a40.67,40.67,0,0,0,6.11-10.86c2.16-5.76-2.4-2.4-6.25-4.17-4.43-2-4.33-3.62-2.44-7.78,2.42-5.35,5.29-8.84,4.95-15-.1-1.7-.58-3.67-2.14-4.34a3.46,3.46,0,0,0-3.56.87,9.71,9.71,0,0,0-2,3.27c-.44,1-.87,2-1.29,3" style="fill:#292949"/><path d="M436.53,460.61l15.67,1.52a98.83,98.83,0,0,0,1.41-14c4.55-.78,9.91-2.28,11.47-7.14a16.55,16.55,0,0,0,.53-4.83l.18-20.22a19.91,19.91,0,0,0-.75-6.9c-1.37-3.8-4.85-6.06-8.27-7.49-8.71-3.65-18.88-3.52-26.94,1.63a14.84,14.84,0,0,0-5.41,5.54c-1.91,3.69-1.68,8.27-1.39,12.54q.39,5.91.8,11.83c.3,4.54,1,9.76,4.41,12.16,1.83,1.28,4.19,1.51,5.77,3.16,2.78,2.91,1.5,8.07,2.52,12.18" style="fill:#b97262"/><path d="M457.93,408.71a7.13,7.13,0,0,1,.55,1.15c.76,2.08.31,4.45,1.06,6.53,1.18,3.31,5.1,5.24,5.74,8.69.53,2.83-1.35,5.55-1.47,8.42-.12,3.14,1.94,6.07,1.68,9.16a20.38,20.38,0,0,1-3.42,8.68c.48-.68,5-.52,6.14-1.25,1.77-1.12,2-1.82,2.46-3.69s.05-3.67.84-5.58c1-2.34,3-4.08,3.69-6.57.93-3.4-.93-6.94-.85-10.46.12-5.33,4.63-10.44,2.87-15.47-1-3-4-4.8-5.62-7.45-1.27-2-1.77-4.4-2.66-6.6s-2.41-4.39-4.7-5a39.32,39.32,0,0,0-3.93-.4c-2.25-.37-4.14-1.89-6.32-2.58-3.11-1-8.5,2.23-10.26,4.89s-.8,4.82,1.07,7.09c3.12,3.78,10.53,6.15,13.13,10.46" style="fill:#292949"/><path d="M413.55,394.14c-1.83,1.39-4.1,2.41-5.76,4-3.24,3.16-3.78,8.12-3.82,12.65,0,4-1.73,7.64-1.22,11.83a10.25,10.25,0,0,0,3.91,7.26c2.9,2,7.39,2.29,8.72,5.55,1.45,3.55-2.17,8.12.13,11.19,1.27,1.69,3.71,1.9,5.5,3,2,1.25,3.06,3.52,4.31,5.53s3.09,4,5.45,4c0-3.59.09-6.44-1.5-9.69-.93-1.9-3.62-5.38-1.64-7.48,1.25-1.75,4.24-2.36,4.28-4.5a4.9,4.9,0,0,0-1.26-2.68,12.3,12.3,0,0,1-1.11-11.17,16,16,0,0,1,7.8-8.33c4.07-2.06,3.39-3.05,4.51-7,1-3.64,3.07-4.53,6.3-5.9,2.91-1.24,3.83-2,4.86-4.75.76-2,1.68-4.43.5-6.64a13.44,13.44,0,0,0-4.21-4.18c-3.36-2.47-7.13-5.06-11.28-4.69-2.31.21-4.46,1.33-6.77,1.51-1.54.11-3.08-.2-4.62-.23a12.24,12.24,0,0,0-7.49,2.42c-2.12,1.61-2,3.27-3.19,5.53a8,8,0,0,1-2.4,2.71" style="fill:#292949"/><path d="M422.6,379.22c.36-2.51,0-5.76-2.36-6.57-1.32-.43-2.78.1-4.14-.15-2.91-.54-4-4-5.53-6.54a2.15,2.15,0,0,0-.91-.93,3.51,3.51,0,0,0-1.87.08c-2.88.4-5.12-2.41-7.86-3.39a6.82,6.82,0,0,0-8.53,4.43c-.39,1.42-.29,3-.65,4.38-1.48,5.8-9.89,8.41-10,14.39-.07,4.05,3.95,7.85,2.48,11.62-.94,2.41-4,4.1-3.59,6.65a3.57,3.57,0,0,0,3.69,2.69,7.22,7.22,0,0,0,4.41-2.11c2-1.78,3.42-4,5.29-5.91s4.36-3.41,7-3.13,4.87,2.21,7.39,1.74c2-.37,3.48-2.2,5.45-2.74s3.79.18,5.7.27,4.25-1,4.26-2.87a5,5,0,0,1,0-1.39c.38-1.24,2.49-1.21,2.87-2.45-1-1.52-2.42-.94-3.17-2.94-.59-1.54-.16-3.56.07-5.13" style="fill:#292949"/><path d="M450.7,455.55c7.29-1,14.69-2.29,20.8.37,5.17,2.25,5.08,8.78,6.24,13.72,3.82,16.33,6.7,32.86,8.95,49.48,1.08,8,2.94,16.46,2.89,24.48,0,6.44-1.65,12.7-1.15,19.27.38,5,2.52,10.48,7.14,12.54,2.32,1,5,1.09,7.32,2.12s4.32,3.76,3.15,6a6.25,6.25,0,0,1-2.73,2.31L486,595.5a93.38,93.38,0,0,1-13.56,6.62c-6.71,2.41-13.89,3.23-21,3.59a173,173,0,0,1-54.72-6c-9.57-2.64-18.81-7.32-16.49-18.15,2.39-11.13,7-22.25,12-32.44,6-12.35,7.82-27.23,12.09-40.26,4.32-13.2,8.9-26.32,13.51-39.43l.06-.15c1.68-4.79,2.37-9.52,6.09-13.41,5.08-5.32,7.52-1.09,13.29,0,4.19.79,8.79.31,13.43-.31" style="fill:#fff"/><path d="M468.6,657.66l5,.27c1.81.09,3.82.12,5.16-1.09,1.64-1.47,1.45-4.25.13-6a10.83,10.83,0,0,0-5.56-3.37,58.43,58.43,0,0,0-15.74-2.33,3.61,3.61,0,0,0-1.57.16,3.25,3.25,0,0,0-1.64,2.14c-3,9.15,7.8,9.88,14.25,10.23" style="fill:#b97262"/><path d="M404.76,673.25a4,4,0,0,0,.14,2.19A3,3,0,0,0,406,676.6c3.42,2.18,8-.17,10.64-3.27s4.4-7,7.74-9.32c7.64-5.27.64-14.91-7.35-12.7-9.33,2.58-11.29,13.79-12.28,21.94" style="fill:#b97262"/><path d="M507.81,623.58c6.6-4.85,13.23-10.35,15.64-18.52s-1-19.72-9.51-24.43c-10.39-5.75-20.59,1.31-28,8-15.17,13.64-31.71,25.7-47.88,38.17-5.46,4.22-24.42,19.74-24.42,19.74-.52,2.19,9.67,22,12.37,21.26,29.49-7.8,58.18-26.84,81.8-44.2" style="fill:#292949"/><path d="M359.37,633c-6.46-3.14-13-6.94-15.53-14.49s.36-20,8.36-26.93c9.77-8.45,19.75-4,27,.74,14.93,9.72,31.12,17.51,47,25.81,5.36,2.81,24,13.44,24,13.44.56,2.06-8.59,24.52-11.19,24.5-28.46-.17-56.49-11.81-79.62-23.07" style="fill:#292949"/><path d="M457.48,661.66a182.65,182.65,0,0,0,18.26,7.69,31.29,31.29,0,0,0,10.17,2.33c8.19.1,14.56-8.7,7.29-15A41,41,0,0,0,482.54,650c-5.71-2.47-2.55,2.3-4.53,6.1-2.27,4.38-3.87,4.19-8,2.08-5.28-2.71-8.66-5.78-14.9-5.74-1.72,0-3.73.4-4.48,2a3.46,3.46,0,0,0,.7,3.63,9.79,9.79,0,0,0,3.19,2.22l2.93,1.46" style="fill:#292949"/><path d="M542.82,552.66a4,4,0,0,1-.17-1.18c.19-3.6,2.44-5.37,3.6-8.78.52-1.52-2-4.76,1.22-5.58s9.89-.27,12.17-3.36c1-1.36,2.25-3.15,3.9-2.75A3.4,3.4,0,0,1,565,532c13.8,13.34.39,29.42-14.65,28.91a6,6,0,0,1-3.18-.66c-1.69-1-2.42-2.71-3.21-4.41a16.94,16.94,0,0,1-1.12-3.13" style="fill:#b97262"/><path d="M569.26,555.06c3.41,1.43,7.61,0,10-2.88a13.27,13.27,0,0,0,2.39-10.51,26.88,26.88,0,0,0-4.37-10.13c-2.4-3.67-5.42-7.21-9.52-8.77a21.73,21.73,0,0,0-7.22-1.13c-1.65,0-3.47.07-4.66,1.21a6.09,6.09,0,0,0-1.45,3.18c-1.65,7.52-.36,8.61,4.57,13.6,4.36,4.43,7.55,9.9,10.31,15.43" style="fill:#fff"/><path d="M342.74,472.82V461.29s61.84-5.75,99,19Z" style="fill:#dfd8c7"/><path d="M330.07,471.59l8.29-6.39s50.57-9.66,103.41,15.11V617.78S405.94,592,330.07,602.14Z" style="fill:#fff"/><path d="M540.79,472.82V461.29s-61.83-5.75-99,19Z" style="fill:#dfd8c7"/><path d="M553.46,471.59l-8.28-6.39s-50.57-9.66-103.41,15.11V617.78S477.6,592,553.46,602.14Z" style="fill:#fff"/><path d="M441.78,480.24c5.76-.32,10.15-1.69,10.38-3.35a.24.24,0,0,1,.1-.11l-.08,0,.29-.08c1.64-.72,9.36-2.27,11.71-2.78l.5-.11.09,0A176.89,176.89,0,0,1,484.66,470c25.39-4,44-3.26,54.51-1.73a56,56,0,0,1,11.37,2.52,13.41,13.41,0,0,1,1.89.8h0a7.81,7.81,0,0,1,3.12,2.85,9.63,9.63,0,0,1,1.14,5.47V601.33c0,3.42-2.84,6.82-6.21,6.2a196.67,196.67,0,0,0-50.6-2.77,211.32,211.32,0,0,0-40.6,6.66c-4.32,1.18-9.72,2.1-13.68,4.23a4.28,4.28,0,0,1-1.23.43,3.84,3.84,0,0,1-.83.09,4.44,4.44,0,0,1-1-.11c-.31-.12-.63-.24-1-.35a4.34,4.34,0,0,1-2.41-3.89V483.2c0-1,.9-2,2.58-3" style="fill:#353a85"/><path d="M441.8,480.24c-5.76-.32-10.15-1.69-10.39-3.35,0,0,0-.07-.09-.11l.08,0-.29-.08c-1.64-.72-9.37-2.27-11.71-2.78l-.5-.11-.1,0A176.46,176.46,0,0,0,398.91,470c-25.38-4-44-3.26-54.5-1.73A56,56,0,0,0,333,470.79a13.79,13.79,0,0,0-1.88.8h0a7.81,7.81,0,0,0-3.12,2.85,9.55,9.55,0,0,0-1.14,5.47V601.33c0,3.42,2.83,6.82,6.2,6.2a196.77,196.77,0,0,1,50.61-2.77,211.32,211.32,0,0,1,40.6,6.66c4.31,1.18,9.72,2.1,13.68,4.23a4.32,4.32,0,0,0,1.22.43,3.86,3.86,0,0,0,.84.09,4.44,4.44,0,0,0,1-.11c.31-.12.63-.24,1-.35a4.36,4.36,0,0,0,2.41-3.89V483.2c0-1-.91-2-2.58-3" style="fill:#353a85"/><g style="opacity:0.100006"><g style="clip-path:url(#clip-path-7)"><path d="M431.37,501.21S419,581.47,342.74,606h0a196.57,196.57,0,0,1,40.95-1.23,211.32,211.32,0,0,1,40.6,6.66c4.31,1.18,9.72,2.1,13.68,4.23a4.68,4.68,0,0,0,1.22.44,4.6,4.6,0,0,0,.84.08,3.91,3.91,0,0,0,1-.12l1-.34a4.36,4.36,0,0,0,2.41-3.89V501.21Z" style="fill:#272525"/></g></g><path d="M441.82,480c-5.77,0-10.45-1.64-10.42-3.23l0,137.47c0,2,4.68,3.56,10.45,3.56s10.44-1.59,10.44-3.56V476.78c-.51,1.82-4.67,3.2-10.44,3.2" style="fill:#5d66d3"/><g style="opacity:0.19999699999999998"><g style="clip-path:url(#clip-path-8)"><path d="M555.56,474.44a7.81,7.81,0,0,0-3.12-2.85h0a13.41,13.41,0,0,0-1.89-.8,56,56,0,0,0-11.37-2.52c-10.49-1.53-29.12-2.24-54.51,1.73a176.89,176.89,0,0,0-19.89,3.76l-.09,0-.5.11c-2.35.51-10.07,2.06-11.71,2.78l-.29.08.08,0a.24.24,0,0,0-.1.11.89.89,0,0,1-.11.35c-1,1.58-5,2.74-10.23,2.74-5.53,0-10.06-1.51-10.39-3,0,0,0,0,0-.05h0a.66.66,0,0,1,0-.14v.11a.29.29,0,0,0-.08-.08l.08,0-.29-.08c-1.64-.72-9.37-2.27-11.71-2.78l-.5-.11-.1,0A176.46,176.46,0,0,0,398.91,470c-25.38-4-44-3.26-54.5-1.73A56,56,0,0,0,333,470.79a13.79,13.79,0,0,0-1.88.8h0a7.81,7.81,0,0,0-3.12,2.85,9.55,9.55,0,0,0-1.14,5.47v2.28a9.55,9.55,0,0,1,1.14-5.47,7.78,7.78,0,0,1,3.12-2.84h0a13.79,13.79,0,0,1,1.88-.8,57.42,57.42,0,0,1,11.38-2.52c10.48-1.53,29.12-2.24,54.5,1.74a174.26,174.26,0,0,1,19.89,3.76l.1,0,.5.11c2.34.5,10.07,2.05,11.71,2.78l.29.07a.61.61,0,0,0,0,.14h0s0,0,0,.06c.33,1.52,4.86,3,10.39,3,5.27,0,9.2-1.15,10.23-2.73a1,1,0,0,0,.11-.36s0-.06.1-.1l-.08,0,.29-.07c1.64-.73,9.36-2.28,11.71-2.78l.5-.11.09,0a174.67,174.67,0,0,1,19.89-3.76c25.39-4,44-3.27,54.51-1.74a57.33,57.33,0,0,1,11.37,2.52,13.41,13.41,0,0,1,1.89.8h0a7.78,7.78,0,0,1,3.12,2.84,9.63,9.63,0,0,1,1.14,5.47v-2.28a9.63,9.63,0,0,0-1.14-5.47" style="fill:#272525"/></g></g><g style="opacity:0.100006"><g style="clip-path:url(#clip-path-9)"><path d="M431.4,476.75l0,137.47c0,1.66,3.33,3,7.83,3.45V479.86c-4.5-.4-7.82-1.77-7.8-3.11" style="fill:#272525"/></g></g><path d="M537.9,483.43c-10.1-1.47-28-2.16-52.51,1.67-4.65.62-12.75,2.27-16.95,3.16a3.41,3.41,0,0,0-2.71,3.34v27.76a3.41,3.41,0,0,0,4.15,3.33c9.93-2.16,20.61-5.19,32.92-5.93a170.5,170.5,0,0,1,36.75,1.18,3.41,3.41,0,0,0,3.88-3.37V487.18a3.41,3.41,0,0,0-2.85-3.36c-.89-.15-1.78-.28-2.68-.39" style="fill:#5d66d3"/><path d="M346.29,539.4a4,4,0,0,0,.17-1.17c-.18-3.61-2.44-5.38-3.6-8.79-.52-1.52,2-4.76-1.22-5.58s-9.89-.27-12.17-3.35c-1-1.37-2.25-3.16-3.9-2.75a3.38,3.38,0,0,0-1.44.93c-13.8,13.35-.39,29.42,14.65,28.92a6.1,6.1,0,0,0,3.18-.67c1.69-1,2.42-2.7,3.21-4.41a16.44,16.44,0,0,0,1.12-3.13" style="fill:#b97262"/><path d="M319.85,541.81c-3.41,1.43-7.61,0-10-2.89a13.27,13.27,0,0,1-2.39-10.51,27.18,27.18,0,0,1,4.37-10.13c2.4-3.67,5.42-7.2,9.52-8.77a21.47,21.47,0,0,1,7.22-1.12c1.65,0,3.48.06,4.66,1.21a6.05,6.05,0,0,1,1.45,3.18c1.65,7.51.36,8.6-4.56,13.6-4.37,4.42-7.56,9.9-10.32,15.43" style="fill:#fff"/><path d="M684.19,265.72a3.46,3.46,0,0,1-.79-.61c-1.94-2.19-1.47-4.27-2.65-6.8-.53-1.13-4.06-1.84-2.39-3.82.62-.73,2.43-2.32,3.76-3.87,2.42-2.81.16-6.89,2.69-10,2.17-2.72,10-5.22,12.74-1.23,1,1.49-.4,3.9-.18,5.53.34,2.49,2.34,4.15,3.25,6.47a18.18,18.18,0,0,1,1.14,7c-.24,4.2-4.48,6.42-8,8.68a5.23,5.23,0,0,1-2.47,1.08,9,9,0,0,1-4.63-1.1,15.86,15.86,0,0,1-2.52-1.32" style="fill:#efbfa5"/><path d="M706.59,253.76c3.26-1.58,4.92-5.6,4.33-9.18a13,13,0,0,0-6.16-8.57,26.4,26.4,0,0,0-10.27-3.35c-4.25-.62-8.8-.7-12.61,1.3a20.92,20.92,0,0,0-5.5,4.56c-1.1,1.19-2.21,2.59-2.14,4.21a6,6,0,0,0,1.39,3.13c4.45,6.08,6.09,5.84,12.94,5.46,6.08-.33,12.17.87,18,2.44" style="fill:#8cabef"/><path d="M534,259.64a3.83,3.83,0,0,0,.87-.48c2.28-1.84,2.15-4,3.74-6.27.7-1,4.3-1.15,3-3.38-.49-.82-2-2.69-3.08-4.43-1.93-3.17,1-6.82-1-10.35-1.69-3-9-6.78-12.36-3.3-1.26,1.3-.25,3.92-.73,5.48-.74,2.41-3,3.72-4.28,5.85a18.3,18.3,0,0,0-2.27,6.75c-.45,4.18,3.37,7.07,6.42,9.87a5.25,5.25,0,0,0,2.25,1.47,8.94,8.94,0,0,0,4.75-.33,16.5,16.5,0,0,0,2.71-.88" style="fill:#efbfa5"/><path d="M513.86,244.16c-3-2.09-3.94-6.33-2.77-9.76a13,13,0,0,1,7.48-7.44,26.32,26.32,0,0,1,10.68-1.63c4.3.08,8.8.76,12.23,3.35a21.31,21.31,0,0,1,4.68,5.41c.88,1.35,1.75,2.92,1.42,4.5a6.06,6.06,0,0,1-1.89,2.86c-5.38,5.27-7,4.76-13.67,3.26-5.94-1.32-12.14-1.13-18.16-.55" style="fill:#8cabef"/></g></svg>